<?xml version="1.0" standalone="no"?><!DOCTYPE svg PUBLIC "-//W3C//DTD SVG 1.1//EN" "http://www.w3.org/Graphics/SVG/1.1/DTD/svg11.dtd"><svg t="1589883305322" class="icon" viewBox="0 0 1024 1024" version="1.1" xmlns="http://www.w3.org/2000/svg" p-id="9500" xmlns:xlink="http://www.w3.org/1999/xlink" width="200" height="200"><defs><style type="text/css"></style></defs><path d="M307.833 898.142l99.864-102.083h317.347c33.288 0 62.138-26.63 62.138-62.138V305.614c0-33.289-26.63-62.138-62.138-62.138H141.392c-33.288 0-62.138 26.63-62.138 62.138V736.14c0 33.288 26.63 62.138 62.138 62.138h144.249c13.315 0 22.192-8.877 22.192-22.192s-8.877-22.192-22.192-22.192H141.392c-8.877 0-17.753-6.658-17.753-17.754V305.614c0-8.877 6.657-17.754 17.753-17.754h583.652c8.877 0 17.754 6.658 17.754 17.754V736.14c0 8.877-6.658 17.754-17.754 17.754H398.82c-6.657 0-11.096 2.219-15.534 6.657L276.764 867.073c-8.877 8.877-8.877 22.192 0 31.07 4.438 4.438 8.877 6.657 15.534 6.657 6.658 0 11.096-2.22 15.535-6.658z" p-id="9501" fill="#ffffff"></path><path d="M867.073 141.392H283.422c-13.316 0-22.193 8.877-22.193 22.192s8.877 22.192 22.193 22.192h583.651c8.877 0 17.754 6.658 17.754 17.754v430.526c0 13.316 8.877 22.193 22.192 22.193s22.192-8.877 22.192-22.193V201.311c-2.219-33.288-28.85-59.919-62.138-59.919z" p-id="9502" fill="#ffffff"></path></svg>