<?xml version="1.0" standalone="no"?><!DOCTYPE svg PUBLIC "-//W3C//DTD SVG 1.1//EN" "http://www.w3.org/Graphics/SVG/1.1/DTD/svg11.dtd"><svg t="1589530944911" class="icon" viewBox="0 0 1024 1024" version="1.1" xmlns="http://www.w3.org/2000/svg" p-id="22643" xmlns:xlink="http://www.w3.org/1999/xlink" width="200" height="200"><defs><style type="text/css"></style></defs><path d="M896.64 209.92C877.44 199.04 855.68 192 832 192L256 192C232.32 192 210.56 199.04 191.36 209.92L544 562.56 896.64 209.92zM942.08 255.36 568.32 629.12C561.92 635.52 552.96 638.72 544 638.08 535.04 638.72 526.08 635.52 519.68 629.12L145.92 255.36C135.04 274.56 128 296.32 128 320l0 448c0 70.4 57.6 128 128 128l576 0c70.4 0 128-57.6 128-128L960 320C960 296.32 952.96 274.56 942.08 255.36z" p-id="22644" fill="#1296db"></path></svg>